<?xml version="1.0" standalone="no"?><!DOCTYPE svg PUBLIC "-//W3C//DTD SVG 1.1//EN" "http://www.w3.org/Graphics/SVG/1.1/DTD/svg11.dtd"><svg t="1562211732967" class="icon" viewBox="0 0 1024 1024" version="1.1" xmlns="http://www.w3.org/2000/svg" p-id="1987" width="250" height="250" xmlns:xlink="http://www.w3.org/1999/xlink"><defs><style type="text/css"></style></defs><path d="M768 955.733333c-27.904 0-52.343467-10.308267-72.6528-30.600533C675.618133 905.4208 665.6 881.2544 665.6 853.333333c0-15.6672 3.464533-30.5664 10.325333-44.322133 0.290133-0.580267 0.494933-1.194667 0.750934-1.9456 1.160533-3.4304 2.781867-6.382933 4.829866-8.925867l71.714134-124.023466c3.054933-5.2736 8.704-8.516267 14.779733-8.516267h0.068267a17.032533 17.032533 0 0 1 14.762666 8.635733l66.7136 117.367467c6.519467 8.123733 11.52 17.3056 14.848 27.323733l1.757867 5.2736 0.085333 0.238934A97.962667 97.962667 0 0 1 870.4 853.333333c0 28.023467-10.359467 52.258133-30.805333 72.004267C820.258133 945.373867 796.023467 955.733333 768 955.733333z m-59.272533-136.891733c-0.733867 2.0992-1.536 3.976533-2.321067 5.495467A63.880533 63.880533 0 0 0 699.733333 853.333333c0 18.807467 6.468267 34.389333 19.746134 47.6672C733.354667 914.858667 749.2096 921.6 768 921.6c18.670933 0 34.2016-6.673067 47.4624-20.394667C829.5936 887.534933 836.266667 872.004267 836.266667 853.333333c0-6.741333-0.887467-13.038933-2.6112-18.7392l-1.6896-5.085866a53.538133 53.538133 0 0 0-9.642667-17.3056 19.182933 19.182933 0 0 1-1.7408-2.491734l-52.718933-92.740266-57.634134 99.669333a14.7456 14.7456 0 0 1-1.501866 2.2016zM853.333333 614.4H682.666667a17.066667 17.066667 0 0 1-17.066667-17.066667v-68.266666h-51.2v68.266666a17.066667 17.066667 0 1 1-34.133333 0v-68.266666H273.066667v68.266666a17.066667 17.066667 0 1 1-34.133334 0v-68.266666h-68.266666a17.066667 17.066667 0 0 1-17.066667-17.066667V341.333333a17.066667 17.066667 0 0 1 17.066667-17.066666h68.266666v-68.266667a17.066667 17.066667 0 0 1 34.133334 0v68.266667h51.2v-68.266667a17.066667 17.066667 0 0 1 17.066666-17.066667h170.666667a17.066667 17.066667 0 0 1 17.066667 17.066667v68.266667h51.2v-68.266667a17.066667 17.066667 0 1 1 34.133333 0v68.266667h68.266667c51.677867 0 96.221867 18.3296 132.386133 54.493866C851.780267 415.470933 870.4 460.305067 870.4 512v85.333333a17.066667 17.066667 0 0 1-17.066667 17.066667z m-153.6-34.133333h136.533334v-68.266667c0-42.9056-14.830933-78.592-45.346134-109.1072C760.968533 372.957867 725.572267 358.4 682.666667 358.4h-68.266667v136.533333h68.266667a17.066667 17.066667 0 0 1 17.066666 17.066667v68.266667z m-426.666666-85.333334h307.2v-136.533333h-68.266667a17.066667 17.066667 0 0 1-17.066667-17.066667v-68.266666h-136.533333v68.266666a17.066667 17.066667 0 0 1-17.066667 17.066667h-68.266666v136.533333z m-85.333334 0h51.2v-136.533333h-51.2v136.533333zM597.333333 119.466667H256a34.133333 34.133333 0 0 1 0-68.266667h341.333333a34.133333 34.133333 0 0 1 0 68.266667z" p-id="1988"></path><path d="M392.533333 85.333333h68.266667v170.666667h-68.266667z" p-id="1989"></path></svg>